<?xml version="1.0" standalone="no"?>
<!DOCTYPE svg PUBLIC "-//W3C//DTD SVG 20010904//EN"
 "http://www.w3.org/TR/2001/REC-SVG-20010904/DTD/svg10.dtd">
<svg version="1.0" xmlns="http://www.w3.org/2000/svg"
 width="200.000000pt" height="196.000000pt" viewBox="0 0 200.000000 196.000000"
 preserveAspectRatio="xMidYMid meet">
<metadata>
Created by potrace 1.13, written by Peter Selinger 2001-2015
</metadata>
<g transform="translate(0.000000,196.000000) scale(0.100000,-0.100000)"
fill="#000000" stroke="none">
<path d="M130 980 l0 -870 870 0 870 0 0 870 0 870 -870 0 -870 0 0 -870z
m1670 0 l0 -800 -800 0 -800 0 0 800 0 800 800 0 800 0 0 -800z"/>
<path d="M567 1404 c-4 -4 -7 -20 -7 -36 0 -27 2 -28 44 -28 l45 0 3 -85 c2
-47 2 -85 0 -85 -1 0 -22 10 -45 22 -65 34 -167 32 -230 -5 -70 -41 -107 -110
-107 -200 0 -76 17 -128 58 -171 76 -80 223 -89 305 -18 16 14 17 13 17 -11
l0 -27 120 0 c68 0 120 4 120 9 0 6 12 3 28 -5 41 -21 147 -18 197 6 43 21 75
64 75 102 0 22 1 21 19 -7 44 -72 109 -105 203 -105 41 0 78 7 107 20 24 11
45 20 47 20 2 0 4 -17 4 -37 -1 -108 -105 -165 -226 -124 l-59 20 -22 -21
c-13 -12 -23 -25 -23 -30 0 -22 94 -50 166 -51 111 0 190 41 225 117 16 36 19
68 19 254 l0 212 45 0 c45 0 45 0 45 35 l0 35 -85 0 c-85 0 -85 0 -85 -26 l0
-25 -29 20 c-16 12 -52 26 -80 33 -136 31 -261 -59 -278 -202 l-6 -49 -36 24
c-22 14 -72 30 -126 40 -96 18 -125 34 -125 71 0 34 36 54 96 54 42 0 59 -5
83 -26 17 -14 31 -32 31 -40 0 -9 12 -14 35 -14 l35 0 0 69 0 70 -72 2 c-169
3 -184 2 -216 -15 -64 -33 -88 -106 -56 -167 19 -38 96 -75 178 -85 91 -10
131 -60 85 -103 -45 -42 -150 -34 -188 16 -12 14 -21 31 -21 37 0 6 -15 11
-32 10 -31 -1 -33 -3 -36 -42 -3 -41 -4 -42 -37 -42 l-35 0 -2 293 -3 292 -80
3 c-45 1 -84 0 -88 -4z m21 -274 c48 -29 76 -98 69 -167 -10 -94 -62 -143
-152 -143 -94 0 -146 59 -146 165 0 72 38 139 91 158 36 13 106 6 138 -13z
m912 -5 c52 -26 65 -52 68 -134 4 -71 2 -80 -22 -108 -33 -39 -84 -57 -147
-51 -133 13 -178 198 -68 281 50 37 109 41 169 12z"/>
</g>
</svg>
